<svg xmlns="http://www.w3.org/2000/svg" width="76" height="72" viewBox="-2 -6 82 78">
<rect x="-2" y="-6" width="82" height="78" fill="#fff"/>
<ellipse cx="12" cy="27" rx="9" ry="4.5" transform="rotate(-20 12 27)" fill="#fff" stroke="#000" stroke-width="2.6" stroke-linecap="round" stroke-linejoin="round"/>
<ellipse cx="60" cy="27" rx="9" ry="4.5" transform="rotate(20 60 27)" fill="#fff" stroke="#000" stroke-width="2.6" stroke-linecap="round" stroke-linejoin="round"/>
<path d="M25 14 Q21 10 22 4 M47 14 Q51 10 50 4" fill="none" stroke="#000" stroke-width="3.2" stroke-linecap="round"/>
<path d="M28 56 h16 l2.5 10 h-21 Z" fill="#fff" stroke="#000" stroke-width="2.6" stroke-linecap="round" stroke-linejoin="round"/><circle cx="36" cy="67.5" r="2" fill="#000"/>
<rect x="18" y="12" width="36" height="40" rx="16" fill="#fff" stroke="#000" stroke-width="2.6" stroke-linecap="round" stroke-linejoin="round"/>
<path d="M21 26 C20 16 32 13 35 18 C38 23 31 30 25 29 Z" fill="#000"/>
<path d="M47 16 C52 16 53 22 50 24 C47 25 44 20 47 16 Z" fill="#000"/>
<ellipse cx="36" cy="46" rx="15" ry="9.5" fill="#fff" stroke="#000" stroke-width="2.6" stroke-linecap="round" stroke-linejoin="round"/>
<ellipse cx="31" cy="44" rx="1.8" ry="2.4" fill="#000"/>
<ellipse cx="41" cy="44" rx="1.8" ry="2.4" fill="#000"/>
<path d="M25 33 Q28 36 31 33 M41 33 Q44 36 47 33" fill="none" stroke="#000" stroke-width="2" stroke-linecap="round" stroke-linejoin="round"/><circle cx="36" cy="51" r="1.8" fill="none" stroke="#000" stroke-width="1.6"/><path d="M58 6 h5 l-5 6 h5 M65 -4 h7 l-7 9 h7" fill="none" stroke="#000" stroke-width="2" stroke-linecap="round" stroke-linejoin="round"/>
</svg>
