solid OpenSCAD_Model
  facet normal 0.1950903220161279 0.9807852804032305 0
    outer loop
      vertex -16.284700949612773 0.9374815910820247 6.99
      vertex -16.143578811442058 0.9094106524888086 0
      vertex -16.284700949612773 0.9374815910820247 0
    endloop
  endfacet
  facet normal -0.06540312923014412 0.9978589232386034 0
    outer loop
      vertex -16 0.8999999999999999 6.99
      vertex -15.856421188557944 0.9094106524888086 0
      vertex -16 0.8999999999999999 0
    endloop
  endfacet
  facet normal 0.06540312923014331 0.9978589232386034 0
    outer loop
      vertex -16.143578811442058 0.9094106524888086 6.99
      vertex -16 0.8999999999999999 0
      vertex -16.143578811442058 0.9094106524888086 0
    endloop
  endfacet
  facet normal 0.321439465303166 0.9469301294951041 0
    outer loop
      vertex -16.420951775601598 0.9837325142375846 6.99
      vertex -16.284700949612773 0.9374815910820247 0
      vertex -16.420951775601598 0.9837325142375846 0
    endloop
  endfacet
  facet normal -0.19509032201612553 0.980785280403231 0
    outer loop
      vertex -15.856421188557944 0.9094106524888086 6.99
      vertex -15.715299050387227 0.9374815910820247 0
      vertex -15.856421188557944 0.9094106524888086 0
    endloop
  endfacet
  facet normal -0.3214394653031623 0.9469301294951055 0
    outer loop
      vertex -15.715299050387227 0.9374815910820247 6.99
      vertex -15.5790482243984 0.9837325142375846 0
      vertex -15.715299050387227 0.9374815910820247 0
    endloop
  endfacet
  facet normal 0.1950903220161279 0.9807852804032305 0
    outer loop
      vertex -16.143578811442058 0.9094106524888086 6.99
      vertex -16.143578811442058 0.9094106524888086 0
      vertex -16.284700949612773 0.9374815910820247 6.99
    endloop
  endfacet
  facet normal 0.06540312923014331 0.9978589232386034 -4.8822671688595424e-21
    outer loop
      vertex -16.143578811442058 0.9094106524888086 6.99
      vertex -16 0.8999999999999999 6.99
      vertex -16 0.8999999999999999 0
    endloop
  endfacet
  facet normal -0.06540312923014412 0.9978589232386034 -1.4966673353299512e-20
    outer loop
      vertex -16 0.8999999999999999 6.99
      vertex -15.856421188557944 0.9094106524888086 6.99
      vertex -15.856421188557944 0.9094106524888086 0
    endloop
  endfacet
  facet normal 0.321439465303166 0.9469301294951041 0
    outer loop
      vertex -16.284700949612773 0.9374815910820247 6.99
      vertex -16.284700949612773 0.9374815910820247 0
      vertex -16.420951775601598 0.9837325142375846 6.99
    endloop
  endfacet
  facet normal -0.19509032201612553 0.980785280403231 -7.822715757586072e-20
    outer loop
      vertex -15.856421188557944 0.9094106524888086 6.99
      vertex -15.715299050387227 0.9374815910820247 6.99
      vertex -15.715299050387227 0.9374815910820247 0
    endloop
  endfacet
  facet normal -0.3214394653031623 0.9469301294951055 -3.1800446775475403e-19
    outer loop
      vertex -15.715299050387227 0.9374815910820247 6.99
      vertex -15.5790482243984 0.9837325142375846 6.99
      vertex -15.5790482243984 0.9837325142375846 0
    endloop
  endfacet
  facet normal 0.5555702330196028 0.8314696123025449 0
    outer loop
      vertex -16.669637571909593 1.1273113256796412 6.99
      vertex -16.55 1.0473720558371173 0
      vertex -16.669637571909593 1.1273113256796412 0
    endloop
  endfacet
  facet normal 0.44228869021899564 0.8968727415326911 0
    outer loop
      vertex -16.55 1.0473720558371173 6.99
      vertex -16.420951775601598 0.9837325142375846 0
      vertex -16.55 1.0473720558371173 0
    endloop
  endfacet
  facet normal 0.6593458151000757 0.7518398074789715 0
    outer loop
      vertex -16.7778174593052 1.2221825406947975 6.99
      vertex -16.669637571909593 1.1273113256796412 0
      vertex -16.7778174593052 1.2221825406947975 0
    endloop
  endfacet
  facet normal -0.4422886902190005 0.8968727415326887 0
    outer loop
      vertex -15.5790482243984 0.9837325142375846 6.99
      vertex -15.45 1.0473720558371173 0
      vertex -15.5790482243984 0.9837325142375846 0
    endloop
  endfacet
  facet normal -0.5555702330196028 0.8314696123025449 0
    outer loop
      vertex -15.45 1.0473720558371173 6.99
      vertex -15.330362428090407 1.1273113256796412 0
      vertex -15.45 1.0473720558371173 0
    endloop
  endfacet
  facet normal -0.6593458151000694 0.7518398074789767 0
    outer loop
      vertex -15.330362428090407 1.1273113256796412 6.99
      vertex -15.222182540694797 1.2221825406947975 0
      vertex -15.330362428090407 1.1273113256796412 0
    endloop
  endfacet
  facet normal 0.7518398074789752 0.6593458151000715 0
    outer loop
      vertex -16.872688674320358 1.3303624280904072 6.99
      vertex -16.7778174593052 1.2221825406947975 0
      vertex -16.872688674320358 1.3303624280904072 0
    endloop
  endfacet
  facet normal 0.8314696123025482 0.555570233019598 0
    outer loop
      vertex -16.95262794416288 1.45 6.99
      vertex -16.872688674320358 1.3303624280904072 0
      vertex -16.95262794416288 1.45 0
    endloop
  endfacet
  facet normal -0.7518398074789812 0.6593458151000644 0
    outer loop
      vertex -15.222182540694797 1.2221825406947975 6.99
      vertex -15.127311325679642 1.3303624280904072 0
      vertex -15.222182540694797 1.2221825406947975 0
    endloop
  endfacet
  facet normal -0.8314696123025426 0.5555702330196065 0
    outer loop
      vertex -15.127311325679642 1.3303624280904072 6.99
      vertex -15.047372055837117 1.45 0
      vertex -15.127311325679642 1.3303624280904072 0
    endloop
  endfacet
  facet normal -0.8968727415326867 0.4422886902190042 0
    outer loop
      vertex -15.047372055837117 1.45 6.99
      vertex -14.983732514237584 1.5790482243984012 0
      vertex -15.047372055837117 1.45 0
    endloop
  endfacet
  facet normal 0.896872741532682 0.4422886902190141 0
    outer loop
      vertex -17.016267485762416 1.5790482243984012 6.99
      vertex -16.95262794416288 1.45 0
      vertex -17.016267485762416 1.5790482243984012 0
    endloop
  endfacet
  facet normal 0.9469301294951096 0.3214394653031504 0
    outer loop
      vertex -17.062518408917974 1.7152990503872272 6.99
      vertex -17.016267485762416 1.5790482243984012 0
      vertex -17.062518408917974 1.7152990503872272 0
    endloop
  endfacet
  facet normal -0.9469301294951058 0.32143946530316136 0
    outer loop
      vertex -14.983732514237584 1.5790482243984012 6.99
      vertex -14.937481591082024 1.7152990503872272 0
      vertex -14.983732514237584 1.5790482243984012 0
    endloop
  endfacet
  facet normal 0.9807852804032295 0.19509032201613263 0
    outer loop
      vertex -17.09058934751119 1.8564211885579431 6.99
      vertex -17.062518408917974 1.7152990503872272 0
      vertex -17.09058934751119 1.8564211885579431 0
    endloop
  endfacet
  facet normal 0.9978589232386027 0.06540312923015622 0
    outer loop
      vertex -17.1 2 6.99
      vertex -17.09058934751119 1.8564211885579431 0
      vertex -17.1 2 0
    endloop
  endfacet
  facet normal -0.9807852804032319 0.19509032201612078 0
    outer loop
      vertex -14.937481591082024 1.7152990503872272 6.99
      vertex -14.909410652488809 1.8564211885579431 0
      vertex -14.937481591082024 1.7152990503872272 0
    endloop
  endfacet
  facet normal -0.9978589232386034 0.06540312923014391 0
    outer loop
      vertex -14.909410652488809 1.8564211885579431 6.99
      vertex -14.9 2 0
      vertex -14.909410652488809 1.8564211885579431 0
    endloop
  endfacet
  facet normal 0.5555702330196028 0.8314696123025449 0
    outer loop
      vertex -16.55 1.0473720558371173 6.99
      vertex -16.55 1.0473720558371173 0
      vertex -16.669637571909593 1.1273113256796412 6.99
    endloop
  endfacet
  facet normal 0.44228869021899564 0.8968727415326911 0
    outer loop
      vertex -16.420951775601598 0.9837325142375846 6.99
      vertex -16.420951775601598 0.9837325142375846 0
      vertex -16.55 1.0473720558371173 6.99
    endloop
  endfacet
  facet normal 0.6593458151000757 0.7518398074789715 0
    outer loop
      vertex -16.669637571909593 1.1273113256796412 6.99
      vertex -16.669637571909593 1.1273113256796412 0
      vertex -16.7778174593052 1.2221825406947975 6.99
    endloop
  endfacet
  facet normal -0.4422886902190005 0.8968727415326887 -5.978370880281468e-19
    outer loop
      vertex -15.5790482243984 0.9837325142375846 6.99
      vertex -15.45 1.0473720558371173 6.99
      vertex -15.45 1.0473720558371173 0
    endloop
  endfacet
  facet normal -0.5555702330196028 0.8314696123025449 6.253380261753117e-19
    outer loop
      vertex -15.45 1.0473720558371173 6.99
      vertex -15.330362428090407 1.1273113256796412 6.99
      vertex -15.330362428090407 1.1273113256796412 0
    endloop
  endfacet
  facet normal -0.6593458151000694 0.7518398074789767 5.074699718991794e-19
    outer loop
      vertex -15.330362428090407 1.1273113256796412 6.99
      vertex -15.222182540694797 1.2221825406947975 6.99
      vertex -15.222182540694797 1.2221825406947975 0
    endloop
  endfacet
  facet normal 0.7518398074789752 0.6593458151000715 0
    outer loop
      vertex -16.7778174593052 1.2221825406947975 6.99
      vertex -16.7778174593052 1.2221825406947975 0
      vertex -16.872688674320358 1.3303624280904072 6.99
    endloop
  endfacet
  facet normal 0.8314696123025482 0.555570233019598 0
    outer loop
      vertex -16.872688674320358 1.3303624280904072 6.99
      vertex -16.872688674320358 1.3303624280904072 0
      vertex -16.95262794416288 1.45 6.99
    endloop
  endfacet
  facet normal 0.896872741532682 0.4422886902190141 0
    outer loop
      vertex -16.95262794416288 1.45 6.99
      vertex -16.95262794416288 1.45 0
      vertex -17.016267485762416 1.5790482243984012 6.99
    endloop
  endfacet
  facet normal -0.7518398074789812 0.6593458151000644 3.3314494748292445e-19
    outer loop
      vertex -15.222182540694797 1.2221825406947975 6.99
      vertex -15.127311325679642 1.3303624280904072 6.99
      vertex -15.127311325679642 1.3303624280904072 0
    endloop
  endfacet
  facet normal -0.8314696123025426 0.5555702330196065 -2.6005100475794214e-19
    outer loop
      vertex -15.127311325679642 1.3303624280904072 6.99
      vertex -15.047372055837117 1.45 6.99
      vertex -15.047372055837117 1.45 0
    endloop
  endfacet
  facet normal 0.9469301294951096 0.3214394653031504 0
    outer loop
      vertex -17.016267485762416 1.5790482243984012 6.99
      vertex -17.016267485762416 1.5790482243984012 0
      vertex -17.062518408917974 1.7152990503872272 6.99
    endloop
  endfacet
  facet normal -0.8968727415326867 0.4422886902190042 3.5858071595834816e-19
    outer loop
      vertex -15.047372055837117 1.45 6.99
      vertex -14.983732514237584 1.5790482243984012 6.99
      vertex -14.983732514237584 1.5790482243984012 0
    endloop
  endfacet
  facet normal -0.9469301294951058 0.32143946530316136 -7.692244881928823e-20
    outer loop
      vertex -14.983732514237584 1.5790482243984012 6.99
      vertex -14.937481591082024 1.7152990503872272 6.99
      vertex -14.937481591082024 1.7152990503872272 0
    endloop
  endfacet
  facet normal 0.9807852804032295 0.19509032201613263 0
    outer loop
      vertex -17.062518408917974 1.7152990503872272 6.99
      vertex -17.062518408917974 1.7152990503872272 0
      vertex -17.09058934751119 1.8564211885579431 6.99
    endloop
  endfacet
  facet normal 0.9978589232386027 0.06540312923015622 0
    outer loop
      vertex -17.09058934751119 1.8564211885579431 6.99
      vertex -17.09058934751119 1.8564211885579431 0
      vertex -17.1 2 6.99
    endloop
  endfacet
  facet normal -0.9807852804032319 0.19509032201612078 -2.970237222917423e-19
    outer loop
      vertex -14.937481591082024 1.7152990503872272 6.99
      vertex -14.909410652488809 1.8564211885579431 6.99
      vertex -14.909410652488809 1.8564211885579431 0
    endloop
  endfacet
  facet normal -0.9978589232386034 0.06540312923014391 4.389470890388443e-20
    outer loop
      vertex -14.909410652488809 1.8564211885579431 6.99
      vertex -14.9 2 6.99
      vertex -14.9 2 0
    endloop
  endfacet
  facet normal 0 0 -1
    outer loop
      vertex -16.55 1.0473720558371173 6.99
      vertex -16.669637571909593 1.1273113256796412 6.99
      vertex -16.669637571909593 2.872688674320359 6.99
    endloop
  endfacet
  facet normal 0 0 -1
    outer loop
      vertex -16.669637571909593 1.1273113256796412 6.99
      vertex -16.7778174593052 1.2221825406947975 6.99
      vertex -16.7778174593052 2.7778174593052025 6.99
    endloop
  endfacet
  facet normal 0 0 -1
    outer loop
      vertex -16.7778174593052 1.2221825406947975 6.99
      vertex -16.872688674320358 1.3303624280904072 6.99
      vertex -16.872688674320358 2.669637571909593 6.99
    endloop
  endfacet
  facet normal 0 0 -1
    outer loop
      vertex -16.284700949612773 0.9374815910820247 6.99
      vertex -16.420951775601598 0.9837325142375846 6.99
      vertex -16.420951775601598 3.016267485762415 6.99
    endloop
  endfacet
  facet normal 0 0 -1
    outer loop
      vertex -16.143578811442058 0.9094106524888086 6.99
      vertex -16.284700949612773 0.9374815910820247 6.99
      vertex -16.284700949612773 3.0625184089179753 6.99
    endloop
  endfacet
  facet normal 0 0 -1
    outer loop
      vertex -16.420951775601598 0.9837325142375846 6.99
      vertex -16.55 1.0473720558371173 6.99
      vertex -16.55 2.9526279441628827 6.99
    endloop
  endfacet
  facet normal 0 0 -1
    outer loop
      vertex -16.143578811442058 0.9094106524888086 6.99
      vertex -16.143578811442058 3.0905893475111914 6.99
      vertex -16 0.8999999999999999 6.99
    endloop
  endfacet
  facet normal 0 0 -1
    outer loop
      vertex -16 0.8999999999999999 6.99
      vertex -16 3.1 6.99
      vertex -15.856421188557944 0.9094106524888086 6.99
    endloop
  endfacet
  facet normal 0 0 -1
    outer loop
      vertex -15.856421188557944 0.9094106524888086 6.99
      vertex -15.856421188557944 3.0905893475111914 6.99
      vertex -15.715299050387227 0.9374815910820247 6.99
    endloop
  endfacet
  facet normal 0 0 -1
    outer loop
      vertex -15.715299050387227 0.9374815910820247 6.99
      vertex -15.715299050387227 3.0625184089179753 6.99
      vertex -15.5790482243984 0.9837325142375846 6.99
    endloop
  endfacet
  facet normal 0 0 -1
    outer loop
      vertex -15.5790482243984 0.9837325142375846 6.99
      vertex -15.5790482243984 3.016267485762415 6.99
      vertex -15.45 1.0473720558371173 6.99
    endloop
  endfacet
  facet normal 0 0 -1
    outer loop
      vertex -15.45 1.0473720558371173 6.99
      vertex -15.45 2.9526279441628827 6.99
      vertex -15.330362428090407 1.1273113256796412 6.99
    endloop
  endfacet
  facet normal 0 0 -1
    outer loop
      vertex -15.330362428090407 1.1273113256796412 6.99
      vertex -15.330362428090407 2.872688674320359 6.99
      vertex -15.222182540694797 1.2221825406947975 6.99
    endloop
  endfacet
  facet normal 0 0 -1
    outer loop
      vertex -16.872688674320358 1.3303624280904072 6.99
      vertex -16.95262794416288 1.45 6.99
      vertex -16.95262794416288 2.55 6.99
    endloop
  endfacet
  facet normal 0 0 -1
    outer loop
      vertex -16.95262794416288 1.45 6.99
      vertex -17.016267485762416 1.5790482243984012 6.99
      vertex -17.016267485762416 2.4209517756015986 6.99
    endloop
  endfacet
  facet normal 0 0 -1
    outer loop
      vertex -17.016267485762416 1.5790482243984012 6.99
      vertex -17.062518408917974 1.7152990503872272 6.99
      vertex -17.062518408917974 2.284700949612773 6.99
    endloop
  endfacet
  facet normal 0 0 -1
    outer loop
      vertex -17.062518408917974 1.7152990503872272 6.99
      vertex -17.09058934751119 1.8564211885579431 6.99
      vertex -17.09058934751119 2.143578811442057 6.99
    endloop
  endfacet
  facet normal 0 0 -1
    outer loop
      vertex -15.222182540694797 1.2221825406947975 6.99
      vertex -15.222182540694797 2.7778174593052025 6.99
      vertex -15.127311325679642 1.3303624280904072 6.99
    endloop
  endfacet
  facet normal 0 0 -1
    outer loop
      vertex -15.127311325679642 1.3303624280904072 6.99
      vertex -15.127311325679642 2.669637571909593 6.99
      vertex -15.047372055837117 1.45 6.99
    endloop
  endfacet
  facet normal 0 0 -1
    outer loop
      vertex -15.047372055837117 1.45 6.99
      vertex -15.047372055837117 2.55 6.99
      vertex -14.983732514237584 1.5790482243984012 6.99
    endloop
  endfacet
  facet normal 0 0 -1
    outer loop
      vertex -14.983732514237584 1.5790482243984012 6.99
      vertex -14.983732514237584 2.4209517756015986 6.99
      vertex -14.937481591082024 1.7152990503872272 6.99
    endloop
  endfacet
  facet normal 0 0 -1
    outer loop
      vertex -14.937481591082024 1.7152990503872272 6.99
      vertex -14.937481591082024 2.284700949612773 6.99
      vertex -14.909410652488809 1.8564211885579431 6.99
    endloop
  endfacet
  facet normal 0.9978589232386027 -0.06540312923015622 0
    outer loop
      vertex -17.09058934751119 2.143578811442057 6.99
      vertex -17.1 2 0
      vertex -17.09058934751119 2.143578811442057 0
    endloop
  endfacet
  facet normal 0.9807852804032295 -0.19509032201613263 0
    outer loop
      vertex -17.062518408917974 2.284700949612773 6.99
      vertex -17.09058934751119 2.143578811442057 0
      vertex -17.062518408917974 2.284700949612773 0
    endloop
  endfacet
  facet normal -0.9978589232386034 -0.06540312923014391 0
    outer loop
      vertex -14.9 2 6.99
      vertex -14.909410652488809 2.143578811442057 0
      vertex -14.9 2 0
    endloop
  endfacet
  facet normal -0.9807852804032319 -0.19509032201612078 0
    outer loop
      vertex -14.909410652488809 2.143578811442057 6.99
      vertex -14.937481591082024 2.284700949612773 0
      vertex -14.909410652488809 2.143578811442057 0
    endloop
  endfacet
  facet normal 0.9469301294951092 -0.32143946530315076 0
    outer loop
      vertex -17.016267485762416 2.4209517756015986 6.99
      vertex -17.062518408917974 2.284700949612773 0
      vertex -17.016267485762416 2.4209517756015986 0
    endloop
  endfacet
  facet normal -0.9469301294951055 -0.3214394653031618 0
    outer loop
      vertex -14.937481591082024 2.284700949612773 6.99
      vertex -14.983732514237584 2.4209517756015986 0
      vertex -14.937481591082024 2.284700949612773 0
    endloop
  endfacet
  facet normal -0.8968727415326867 -0.4422886902190042 0
    outer loop
      vertex -14.983732514237584 2.4209517756015986 6.99
      vertex -15.047372055837117 2.55 0
      vertex -14.983732514237584 2.4209517756015986 0
    endloop
  endfacet
  facet normal 0.896872741532682 -0.4422886902190141 0
    outer loop
      vertex -16.95262794416288 2.55 6.99
      vertex -17.016267485762416 2.4209517756015986 0
      vertex -16.95262794416288 2.55 0
    endloop
  endfacet
  facet normal 0.8314696123025487 -0.5555702330195972 0
    outer loop
      vertex -16.872688674320358 2.669637571909593 6.99
      vertex -16.95262794416288 2.55 0
      vertex -16.872688674320358 2.669637571909593 0
    endloop
  endfacet
  facet normal 0.7518398074789752 -0.6593458151000715 0
    outer loop
      vertex -16.7778174593052 2.7778174593052025 6.99
      vertex -16.872688674320358 2.669637571909593 0
      vertex -16.7778174593052 2.7778174593052025 0
    endloop
  endfacet
  facet normal -0.831469612302543 -0.5555702330196057 0
    outer loop
      vertex -15.047372055837117 2.55 6.99
      vertex -15.127311325679642 2.669637571909593 0
      vertex -15.047372055837117 2.55 0
    endloop
  endfacet
  facet normal -0.7518398074789812 -0.6593458151000644 0
    outer loop
      vertex -15.127311325679642 2.669637571909593 6.99
      vertex -15.222182540694797 2.7778174593052025 0
      vertex -15.127311325679642 2.669637571909593 0
    endloop
  endfacet
  facet normal 0.6593458151000757 -0.7518398074789715 0
    outer loop
      vertex -16.669637571909593 2.872688674320359 6.99
      vertex -16.7778174593052 2.7778174593052025 0
      vertex -16.669637571909593 2.872688674320359 0
    endloop
  endfacet
  facet normal 0.5555702330196028 -0.8314696123025449 0
    outer loop
      vertex -16.55 2.9526279441628827 6.99
      vertex -16.669637571909593 2.872688674320359 0
      vertex -16.55 2.9526279441628827 0
    endloop
  endfacet
  facet normal 0.4422886902189944 -0.8968727415326918 0
    outer loop
      vertex -16.420951775601598 3.016267485762415 6.99
      vertex -16.55 2.9526279441628827 0
      vertex -16.420951775601598 3.016267485762415 0
    endloop
  endfacet
  facet normal -0.6593458151000694 -0.7518398074789767 0
    outer loop
      vertex -15.222182540694797 2.7778174593052025 6.99
      vertex -15.330362428090407 2.872688674320359 0
      vertex -15.222182540694797 2.7778174593052025 0
    endloop
  endfacet
  facet normal -0.5555702330196028 -0.8314696123025449 0
    outer loop
      vertex -15.330362428090407 2.872688674320359 6.99
      vertex -15.45 2.9526279441628827 0
      vertex -15.330362428090407 2.872688674320359 0
    endloop
  endfacet
  facet normal -0.44228869021899925 -0.8968727415326894 0
    outer loop
      vertex -15.45 2.9526279441628827 6.99
      vertex -15.5790482243984 3.016267485762415 0
      vertex -15.45 2.9526279441628827 0
    endloop
  endfacet
  facet normal 0.9978589232386027 -0.06540312923015622 0
    outer loop
      vertex -17.1 2 6.99
      vertex -17.1 2 0
      vertex -17.09058934751119 2.143578811442057 6.99
    endloop
  endfacet
  facet normal 0.9807852804032295 -0.19509032201613263 0
    outer loop
      vertex -17.09058934751119 2.143578811442057 6.99
      vertex -17.09058934751119 2.143578811442057 0
      vertex -17.062518408917974 2.284700949612773 6.99
    endloop
  endfacet
  facet normal -0.9978589232386034 -0.06540312923014391 -4.389470890388443e-20
    outer loop
      vertex -14.9 2 6.99
      vertex -14.909410652488809 2.143578811442057 6.99
      vertex -14.909410652488809 2.143578811442057 0
    endloop
  endfacet
  facet normal -0.9807852804032319 -0.19509032201612078 2.970237222917423e-19
    outer loop
      vertex -14.909410652488809 2.143578811442057 6.99
      vertex -14.937481591082024 2.284700949612773 6.99
      vertex -14.937481591082024 2.284700949612773 0
    endloop
  endfacet
  facet normal 0.9469301294951092 -0.32143946530315076 0
    outer loop
      vertex -17.062518408917974 2.284700949612773 6.99
      vertex -17.062518408917974 2.284700949612773 0
      vertex -17.016267485762416 2.4209517756015986 6.99
    endloop
  endfacet
  facet normal 0.896872741532682 -0.4422886902190141 0
    outer loop
      vertex -17.016267485762416 2.4209517756015986 6.99
      vertex -17.016267485762416 2.4209517756015986 0
      vertex -16.95262794416288 2.55 6.99
    endloop
  endfacet
  facet normal -0.9469301294951055 -0.3214394653031618 0
    outer loop
      vertex -14.983732514237584 2.4209517756015986 6.99
      vertex -14.983732514237584 2.4209517756015986 0
      vertex -14.937481591082024 2.284700949612773 6.99
    endloop
  endfacet
  facet normal 0.8314696123025487 -0.5555702330195972 0
    outer loop
      vertex -16.95262794416288 2.55 6.99
      vertex -16.95262794416288 2.55 0
      vertex -16.872688674320358 2.669637571909593 6.99
    endloop
  endfacet
  facet normal 0.7518398074789752 -0.6593458151000715 0
    outer loop
      vertex -16.872688674320358 2.669637571909593 6.99
      vertex -16.872688674320358 2.669637571909593 0
      vertex -16.7778174593052 2.7778174593052025 6.99
    endloop
  endfacet
  facet normal -0.8968727415326867 -0.4422886902190042 -3.5858071595834816e-19
    outer loop
      vertex -14.983732514237584 2.4209517756015986 6.99
      vertex -15.047372055837117 2.55 6.99
      vertex -15.047372055837117 2.55 0
    endloop
  endfacet
  facet normal -0.831469612302543 -0.5555702330196057 -1.404869932490456e-19
    outer loop
      vertex -15.047372055837117 2.55 6.99
      vertex -15.127311325679642 2.669637571909593 6.99
      vertex -15.127311325679642 2.669637571909593 0
    endloop
  endfacet
  facet normal -0.7518398074789812 -0.6593458151000644 -3.3314494748292445e-19
    outer loop
      vertex -15.127311325679642 2.669637571909593 6.99
      vertex -15.222182540694797 2.7778174593052025 6.99
      vertex -15.222182540694797 2.7778174593052025 0
    endloop
  endfacet
  facet normal 0.6593458151000757 -0.7518398074789715 0
    outer loop
      vertex -16.7778174593052 2.7778174593052025 6.99
      vertex -16.7778174593052 2.7778174593052025 0
      vertex -16.669637571909593 2.872688674320359 6.99
    endloop
  endfacet
  facet normal 0.5555702330196028 -0.8314696123025449 0
    outer loop
      vertex -16.669637571909593 2.872688674320359 6.99
      vertex -16.669637571909593 2.872688674320359 0
      vertex -16.55 2.9526279441628827 6.99
    endloop
  endfacet
  facet normal 0.4422886902189944 -0.8968727415326918 0
    outer loop
      vertex -16.55 2.9526279441628827 6.99
      vertex -16.55 2.9526279441628827 0
      vertex -16.420951775601598 3.016267485762415 6.99
    endloop
  endfacet
  facet normal -0.6593458151000694 -0.7518398074789767 -5.074699718991794e-19
    outer loop
      vertex -15.222182540694797 2.7778174593052025 6.99
      vertex -15.330362428090407 2.872688674320359 6.99
      vertex -15.330362428090407 2.872688674320359 0
    endloop
  endfacet
  facet normal -0.5555702330196028 -0.8314696123025449 -6.253380261753117e-19
    outer loop
      vertex -15.330362428090407 2.872688674320359 6.99
      vertex -15.45 2.9526279441628827 6.99
      vertex -15.45 2.9526279441628827 0
    endloop
  endfacet
  facet normal -0.44228869021899925 -0.8968727415326894 -2.3320544934476463e-19
    outer loop
      vertex -15.45 2.9526279441628827 6.99
      vertex -15.5790482243984 3.016267485762415 6.99
      vertex -15.5790482243984 3.016267485762415 0
    endloop
  endfacet
  facet normal 0.32143946530316747 -0.9469301294951038 0
    outer loop
      vertex -16.284700949612773 3.0625184089179753 6.99
      vertex -16.420951775601598 3.016267485762415 0
      vertex -16.284700949612773 3.0625184089179753 0
    endloop
  endfacet
  facet normal 0.1950903220161279 -0.9807852804032305 0
    outer loop
      vertex -16.143578811442058 3.0905893475111914 6.99
      vertex -16.284700949612773 3.0625184089179753 0
      vertex -16.143578811442058 3.0905893475111914 0
    endloop
  endfacet
  facet normal -0.06540312923014412 -0.9978589232386034 0
    outer loop
      vertex -15.856421188557944 3.0905893475111914 6.99
      vertex -16 3.1 0
      vertex -15.856421188557944 3.0905893475111914 0
    endloop
  endfacet
  facet normal 0.06540312923014331 -0.9978589232386034 0
    outer loop
      vertex -16 3.1 6.99
      vertex -16.143578811442058 3.0905893475111914 0
      vertex -16 3.1 0
    endloop
  endfacet
  facet normal -0.32143946530316364 -0.9469301294951048 0
    outer loop
      vertex -15.5790482243984 3.016267485762415 6.99
      vertex -15.715299050387227 3.0625184089179753 0
      vertex -15.5790482243984 3.016267485762415 0
    endloop
  endfacet
  facet normal -0.19509032201612553 -0.980785280403231 0
    outer loop
      vertex -15.715299050387227 3.0625184089179753 6.99
      vertex -15.856421188557944 3.0905893475111914 0
      vertex -15.715299050387227 3.0625184089179753 0
    endloop
  endfacet
  facet normal 0.32143946530316747 -0.9469301294951038 0
    outer loop
      vertex -16.420951775601598 3.016267485762415 6.99
      vertex -16.420951775601598 3.016267485762415 0
      vertex -16.284700949612773 3.0625184089179753 6.99
    endloop
  endfacet
  facet normal 0.1950903220161279 -0.9807852804032305 0
    outer loop
      vertex -16.284700949612773 3.0625184089179753 6.99
      vertex -16.284700949612773 3.0625184089179753 0
      vertex -16.143578811442058 3.0905893475111914 6.99
    endloop
  endfacet
  facet normal 0.06540312923014331 -0.9978589232386034 0
    outer loop
      vertex -16.143578811442058 3.0905893475111914 6.99
      vertex -16.143578811442058 3.0905893475111914 0
      vertex -16 3.1 6.99
    endloop
  endfacet
  facet normal -0.06540312923014412 -0.9978589232386034 0
    outer loop
      vertex -16 3.1 6.99
      vertex -16 3.1 0
      vertex -15.856421188557944 3.0905893475111914 6.99
    endloop
  endfacet
  facet normal -0.32143946530316364 -0.9469301294951048 4.2130847593588164e-19
    outer loop
      vertex -15.5790482243984 3.016267485762415 6.99
      vertex -15.715299050387227 3.0625184089179753 6.99
      vertex -15.715299050387227 3.0625184089179753 0
    endloop
  endfacet
  facet normal -0.19509032201612553 -0.980785280403231 7.822715757586072e-20
    outer loop
      vertex -15.715299050387227 3.0625184089179753 6.99
      vertex -15.856421188557944 3.0905893475111914 6.99
      vertex -15.856421188557944 3.0905893475111914 0
    endloop
  endfacet
  facet normal 0 0 -1
    outer loop
      vertex -17.09058934751119 1.8564211885579431 6.99
      vertex -17.1 2 6.99
      vertex -17.09058934751119 2.143578811442057 6.99
    endloop
  endfacet
  facet normal 0 0 -1
    outer loop
      vertex -17.062518408917974 1.7152990503872272 6.99
      vertex -17.09058934751119 2.143578811442057 6.99
      vertex -17.062518408917974 2.284700949612773 6.99
    endloop
  endfacet
  facet normal 0 0 -1
    outer loop
      vertex -17.016267485762416 1.5790482243984012 6.99
      vertex -17.062518408917974 2.284700949612773 6.99
      vertex -17.016267485762416 2.4209517756015986 6.99
    endloop
  endfacet
  facet normal 0 0 -1
    outer loop
      vertex -16.95262794416288 1.45 6.99
      vertex -17.016267485762416 2.4209517756015986 6.99
      vertex -16.95262794416288 2.55 6.99
    endloop
  endfacet
  facet normal 0 0 -1
    outer loop
      vertex -16.872688674320358 1.3303624280904072 6.99
      vertex -16.95262794416288 2.55 6.99
      vertex -16.872688674320358 2.669637571909593 6.99
    endloop
  endfacet
  facet normal 0 0 -1
    outer loop
      vertex -16.7778174593052 1.2221825406947975 6.99
      vertex -16.872688674320358 2.669637571909593 6.99
      vertex -16.7778174593052 2.7778174593052025 6.99
    endloop
  endfacet
  facet normal 0 0 -1
    outer loop
      vertex -14.909410652488809 1.8564211885579431 6.99
      vertex -14.909410652488809 2.143578811442057 6.99
      vertex -14.9 2 6.99
    endloop
  endfacet
  facet normal 0 0 -1
    outer loop
      vertex -14.909410652488809 1.8564211885579431 6.99
      vertex -14.937481591082024 2.284700949612773 6.99
      vertex -14.909410652488809 2.143578811442057 6.99
    endloop
  endfacet
  facet normal 0 0 -1
    outer loop
      vertex -14.937481591082024 1.7152990503872272 6.99
      vertex -14.983732514237584 2.4209517756015986 6.99
      vertex -14.937481591082024 2.284700949612773 6.99
    endloop
  endfacet
  facet normal 0 0 -1
    outer loop
      vertex -14.983732514237584 1.5790482243984012 6.99
      vertex -15.047372055837117 2.55 6.99
      vertex -14.983732514237584 2.4209517756015986 6.99
    endloop
  endfacet
  facet normal 0 0 -1
    outer loop
      vertex -15.047372055837117 1.45 6.99
      vertex -15.127311325679642 2.669637571909593 6.99
      vertex -15.047372055837117 2.55 6.99
    endloop
  endfacet
  facet normal 0 0 -1
    outer loop
      vertex -16.669637571909593 1.1273113256796412 6.99
      vertex -16.7778174593052 2.7778174593052025 6.99
      vertex -16.669637571909593 2.872688674320359 6.99
    endloop
  endfacet
  facet normal 0 0 -1
    outer loop
      vertex -16.55 1.0473720558371173 6.99
      vertex -16.669637571909593 2.872688674320359 6.99
      vertex -16.55 2.9526279441628827 6.99
    endloop
  endfacet
  facet normal 0 0 -1
    outer loop
      vertex -16.420951775601598 0.9837325142375846 6.99
      vertex -16.55 2.9526279441628827 6.99
      vertex -16.420951775601598 3.016267485762415 6.99
    endloop
  endfacet
  facet normal 0 0 -1
    outer loop
      vertex -16.284700949612773 0.9374815910820247 6.99
      vertex -16.420951775601598 3.016267485762415 6.99
      vertex -16.284700949612773 3.0625184089179753 6.99
    endloop
  endfacet
  facet normal 0 0 -1
    outer loop
      vertex -16.143578811442058 0.9094106524888086 6.99
      vertex -16.284700949612773 3.0625184089179753 6.99
      vertex -16.143578811442058 3.0905893475111914 6.99
    endloop
  endfacet
  facet normal 0 0 -1
    outer loop
      vertex -16 0.8999999999999999 6.99
      vertex -16.143578811442058 3.0905893475111914 6.99
      vertex -16 3.1 6.99
    endloop
  endfacet
  facet normal 0 0 -1
    outer loop
      vertex -15.856421188557944 0.9094106524888086 6.99
      vertex -16 3.1 6.99
      vertex -15.856421188557944 3.0905893475111914 6.99
    endloop
  endfacet
  facet normal 0 0 -1
    outer loop
      vertex -15.127311325679642 1.3303624280904072 6.99
      vertex -15.222182540694797 2.7778174593052025 6.99
      vertex -15.127311325679642 2.669637571909593 6.99
    endloop
  endfacet
  facet normal 0 0 -1
    outer loop
      vertex -15.222182540694797 1.2221825406947975 6.99
      vertex -15.330362428090407 2.872688674320359 6.99
      vertex -15.222182540694797 2.7778174593052025 6.99
    endloop
  endfacet
  facet normal 0 0 -1
    outer loop
      vertex -15.45 1.0473720558371173 6.99
      vertex -15.5790482243984 3.016267485762415 6.99
      vertex -15.45 2.9526279441628827 6.99
    endloop
  endfacet
  facet normal 0 0 -1
    outer loop
      vertex -15.715299050387227 0.9374815910820247 6.99
      vertex -15.856421188557944 3.0905893475111914 6.99
      vertex -15.715299050387227 3.0625184089179753 6.99
    endloop
  endfacet
  facet normal 0 0 -1
    outer loop
      vertex -15.5790482243984 0.9837325142375846 6.99
      vertex -15.715299050387227 3.0625184089179753 6.99
      vertex -15.5790482243984 3.016267485762415 6.99
    endloop
  endfacet
  facet normal 0 0 -1
    outer loop
      vertex -15.330362428090407 1.1273113256796412 6.99
      vertex -15.45 2.9526279441628827 6.99
      vertex -15.330362428090407 2.872688674320359 6.99
    endloop
  endfacet
  facet normal 0.19509032201612553 0.980785280403231 0
    outer loop
      vertex 15.715299050387227 0.9374815910820247 6.99
      vertex 15.856421188557944 0.9094106524888086 0
      vertex 15.715299050387227 0.9374815910820247 0
    endloop
  endfacet
  facet normal 0.3214394653031623 0.9469301294951055 0
    outer loop
      vertex 15.5790482243984 0.9837325142375846 6.99
      vertex 15.715299050387227 0.9374815910820247 0
      vertex 15.5790482243984 0.9837325142375846 0
    endloop
  endfacet
  facet normal -0.06540312923014331 0.9978589232386034 0
    outer loop
      vertex 16 0.8999999999999999 6.99
      vertex 16.143578811442058 0.9094106524888086 0
      vertex 16 0.8999999999999999 0
    endloop
  endfacet
  facet normal 0.06540312923014412 0.9978589232386034 0
    outer loop
      vertex 15.856421188557944 0.9094106524888086 6.99
      vertex 16 0.8999999999999999 0
      vertex 15.856421188557944 0.9094106524888086 0
    endloop
  endfacet
  facet normal -0.1950903220161279 0.9807852804032305 0
    outer loop
      vertex 16.143578811442058 0.9094106524888086 6.99
      vertex 16.284700949612773 0.9374815910820247 0
      vertex 16.143578811442058 0.9094106524888086 0
    endloop
  endfacet
  facet normal -0.321439465303166 0.9469301294951041 0
    outer loop
      vertex 16.284700949612773 0.9374815910820247 6.99
      vertex 16.420951775601598 0.9837325142375846 0
      vertex 16.284700949612773 0.9374815910820247 0
    endloop
  endfacet
  facet normal 0.19509032201612553 0.980785280403231 0
    outer loop
      vertex 15.856421188557944 0.9094106524888086 6.99
      vertex 15.856421188557944 0.9094106524888086 0
      vertex 15.715299050387227 0.9374815910820247 6.99
    endloop
  endfacet
  facet normal 0.3214394653031623 0.9469301294951055 0
    outer loop
      vertex 15.715299050387227 0.9374815910820247 6.99
      vertex 15.715299050387227 0.9374815910820247 0
      vertex 15.5790482243984 0.9837325142375846 6.99
    endloop
  endfacet
  facet normal 0.06540312923014412 0.9978589232386034 1.4966673353299512e-20
    outer loop
      vertex 15.856421188557944 0.9094106524888086 6.99
      vertex 16 0.8999999999999999 6.99
      vertex 16 0.8999999999999999 0
    endloop
  endfacet
  facet normal -0.06540312923014331 0.9978589232386034 4.8822671688595424e-21
    outer loop
      vertex 16 0.8999999999999999 6.99
      vertex 16.143578811442058 0.9094106524888086 6.99
      vertex 16.143578811442058 0.9094106524888086 0
    endloop
  endfacet
  facet normal -0.1950903220161279 0.9807852804032305 3.622088703500212e-19
    outer loop
      vertex 16.143578811442058 0.9094106524888086 6.99
      vertex 16.284700949612773 0.9374815910820247 6.99
      vertex 16.284700949612773 0.9374815910820247 0
    endloop
  endfacet
  facet normal -0.321439465303166 0.9469301294951041 -7.816673574674797e-20
    outer loop
      vertex 16.284700949612773 0.9374815910820247 6.99
      vertex 16.420951775601598 0.9837325142375846 6.99
      vertex 16.420951775601598 0.9837325142375846 0
    endloop
  endfacet
  facet normal 0.4422886902190005 0.8968727415326887 0
    outer loop
      vertex 15.45 1.0473720558371173 6.99
      vertex 15.5790482243984 0.9837325142375846 0
      vertex 15.45 1.0473720558371173 0
    endloop
  endfacet
  facet normal 0.5555702330196028 0.8314696123025449 0
    outer loop
      vertex 15.330362428090407 1.1273113256796412 6.99
      vertex 15.45 1.0473720558371173 0
      vertex 15.330362428090407 1.1273113256796412 0
    endloop
  endfacet
  facet normal 0.6593458151000694 0.7518398074789767 0
    outer loop
      vertex 15.222182540694797 1.2221825406947975 6.99
      vertex 15.330362428090407 1.1273113256796412 0
      vertex 15.222182540694797 1.2221825406947975 0
    endloop
  endfacet
  facet normal -0.44228869021899564 0.8968727415326911 0
    outer loop
      vertex 16.420951775601598 0.9837325142375846 6.99
      vertex 16.55 1.0473720558371173 0
      vertex 16.420951775601598 0.9837325142375846 0
    endloop
  endfacet
  facet normal -0.5555702330196028 0.8314696123025449 0
    outer loop
      vertex 16.55 1.0473720558371173 6.99
      vertex 16.669637571909593 1.1273113256796412 0
      vertex 16.55 1.0473720558371173 0
    endloop
  endfacet
  facet normal -0.6593458151000757 0.7518398074789715 0
    outer loop
      vertex 16.669637571909593 1.1273113256796412 6.99
      vertex 16.7778174593052 1.2221825406947975 0
      vertex 16.669637571909593 1.1273113256796412 0
    endloop
  endfacet
  facet normal 0.7518398074789812 0.6593458151000644 0
    outer loop
      vertex 15.127311325679642 1.3303624280904072 6.99
      vertex 15.222182540694797 1.2221825406947975 0
      vertex 15.127311325679642 1.3303624280904072 0
    endloop
  endfacet
  facet normal 0.8314696123025426 0.5555702330196065 0
    outer loop
      vertex 15.047372055837117 1.45 6.99
      vertex 15.127311325679642 1.3303624280904072 0
      vertex 15.047372055837117 1.45 0
    endloop
  endfacet
  facet normal -0.7518398074789752 0.6593458151000715 0
    outer loop
      vertex 16.7778174593052 1.2221825406947975 6.99
      vertex 16.872688674320358 1.3303624280904072 0
      vertex 16.7778174593052 1.2221825406947975 0
    endloop
  endfacet
  facet normal -0.8314696123025482 0.555570233019598 0
    outer loop
      vertex 16.872688674320358 1.3303624280904072 6.99
      vertex 16.95262794416288 1.45 0
      vertex 16.872688674320358 1.3303624280904072 0
    endloop
  endfacet
  facet normal -0.896872741532682 0.4422886902190141 0
    outer loop
      vertex 16.95262794416288 1.45 6.99
      vertex 17.016267485762416 1.5790482243984012 0
      vertex 16.95262794416288 1.45 0
    endloop
  endfacet
  facet normal 0.8968727415326867 0.4422886902190042 0
    outer loop
      vertex 14.983732514237584 1.5790482243984012 6.99
      vertex 15.047372055837117 1.45 0
      vertex 14.983732514237584 1.5790482243984012 0
    endloop
  endfacet
  facet normal 0.9469301294951058 0.32143946530316136 0
    outer loop
      vertex 14.937481591082024 1.7152990503872272 6.99
      vertex 14.983732514237584 1.5790482243984012 0
      vertex 14.937481591082024 1.7152990503872272 0
    endloop
  endfacet
  facet normal -0.9469301294951096 0.3214394653031504 0
    outer loop
      vertex 17.016267485762416 1.5790482243984012 6.99
      vertex 17.062518408917974 1.7152990503872272 0
      vertex 17.016267485762416 1.5790482243984012 0
    endloop
  endfacet
  facet normal 0.9807852804032319 0.19509032201612078 0
    outer loop
      vertex 14.909410652488809 1.8564211885579431 6.99
      vertex 14.937481591082024 1.7152990503872272 0
      vertex 14.909410652488809 1.8564211885579431 0
    endloop
  endfacet
  facet normal 0.9978589232386034 0.06540312923014391 0
    outer loop
      vertex 14.9 2 6.99
      vertex 14.909410652488809 1.8564211885579431 0
      vertex 14.9 2 0
    endloop
  endfacet
  facet normal -0.9807852804032295 0.19509032201613263 0
    outer loop
      vertex 17.062518408917974 1.7152990503872272 6.99
      vertex 17.09058934751119 1.8564211885579431 0
      vertex 17.062518408917974 1.7152990503872272 0
    endloop
  endfacet
  facet normal -0.9978589232386027 0.06540312923015622 0
    outer loop
      vertex 17.09058934751119 1.8564211885579431 6.99
      vertex 17.1 2 0
      vertex 17.09058934751119 1.8564211885579431 0
    endloop
  endfacet
  facet normal 0.4422886902190005 0.8968727415326887 0
    outer loop
      vertex 15.5790482243984 0.9837325142375846 6.99
      vertex 15.5790482243984 0.9837325142375846 0
      vertex 15.45 1.0473720558371173 6.99
    endloop
  endfacet
  facet normal 0.5555702330196028 0.8314696123025449 0
    outer loop
      vertex 15.45 1.0473720558371173 6.99
      vertex 15.45 1.0473720558371173 0
      vertex 15.330362428090407 1.1273113256796412 6.99
    endloop
  endfacet
  facet normal 0.6593458151000694 0.7518398074789767 0
    outer loop
      vertex 15.330362428090407 1.1273113256796412 6.99
      vertex 15.330362428090407 1.1273113256796412 0
      vertex 15.222182540694797 1.2221825406947975 6.99
    endloop
  endfacet
  facet normal -0.44228869021899564 0.8968727415326911 -3.0998873950244544e-19
    outer loop
      vertex 16.420951775601598 0.9837325142375846 6.99
      vertex 16.55 1.0473720558371173 6.99
      vertex 16.55 1.0473720558371173 0
    endloop
  endfacet
  facet normal -0.5555702330196028 0.8314696123025449 6.253380261753117e-19
    outer loop
      vertex 16.55 1.0473720558371173 6.99
      vertex 16.669637571909593 1.1273113256796412 6.99
      vertex 16.669637571909593 1.1273113256796412 0
    endloop
  endfacet
  facet normal -0.6593458151000757 0.7518398074789715 2.51989436559448e-19
    outer loop
      vertex 16.669637571909593 1.1273113256796412 6.99
      vertex 16.7778174593052 1.2221825406947975 6.99
      vertex 16.7778174593052 1.2221825406947975 0
    endloop
  endfacet
  facet normal 0.7518398074789812 0.6593458151000644 0
    outer loop
      vertex 15.222182540694797 1.2221825406947975 6.99
      vertex 15.222182540694797 1.2221825406947975 0
      vertex 15.127311325679642 1.3303624280904072 6.99
    endloop
  endfacet
  facet normal 0.8314696123025426 0.5555702330196065 0
    outer loop
      vertex 15.127311325679642 1.3303624280904072 6.99
      vertex 15.127311325679642 1.3303624280904072 0
      vertex 15.047372055837117 1.45 6.99
    endloop
  endfacet
  facet normal 0.8968727415326867 0.4422886902190042 0
    outer loop
      vertex 15.047372055837117 1.45 6.99
      vertex 15.047372055837117 1.45 0
      vertex 14.983732514237584 1.5790482243984012 6.99
    endloop
  endfacet
  facet normal -0.7518398074789752 0.6593458151000715 -5.285109004100671e-20
    outer loop
      vertex 16.7778174593052 1.2221825406947975 6.99
      vertex 16.872688674320358 1.3303624280904072 6.99
      vertex 16.872688674320358 1.3303624280904072 0
    endloop
  endfacet
  facet normal -0.8314696123025482 0.555570233019598 5.870303450695404e-19
    outer loop
      vertex 16.872688674320358 1.3303624280904072 6.99
      vertex 16.95262794416288 1.45 6.99
      vertex 16.95262794416288 1.45 0
    endloop
  endfacet
  facet normal 0.9469301294951058 0.32143946530316136 7.692244881928823e-20
    outer loop
      vertex 14.937481591082024 1.7152990503872272 6.99
      vertex 14.983732514237584 1.5790482243984012 6.99
      vertex 14.983732514237584 1.5790482243984012 0
    endloop
  endfacet
  facet normal -0.896872741532682 0.4422886902190141 6.093312491855133e-19
    outer loop
      vertex 16.95262794416288 1.45 6.99
      vertex 17.016267485762416 1.5790482243984012 6.99
      vertex 17.016267485762416 1.5790482243984012 0
    endloop
  endfacet
  facet normal -0.9469301294951096 0.3214394653031504 -1.1287673739617815e-19
    outer loop
      vertex 17.016267485762416 1.5790482243984012 6.99
      vertex 17.062518408917974 1.7152990503872272 6.99
      vertex 17.062518408917974 1.7152990503872272 0
    endloop
  endfacet
  facet normal 0.9807852804032319 0.19509032201612078 0
    outer loop
      vertex 14.937481591082024 1.7152990503872272 6.99
      vertex 14.937481591082024 1.7152990503872272 0
      vertex 14.909410652488809 1.8564211885579431 6.99
    endloop
  endfacet
  facet normal 0.9978589232386034 0.06540312923014391 0
    outer loop
      vertex 14.909410652488809 1.8564211885579431 6.99
      vertex 14.909410652488809 1.8564211885579431 0
      vertex 14.9 2 6.99
    endloop
  endfacet
  facet normal -0.9807852804032295 0.19509032201613263 -2.8138091896040802e-19
    outer loop
      vertex 17.062518408917974 1.7152990503872272 6.99
      vertex 17.09058934751119 1.8564211885579431 6.99
      vertex 17.09058934751119 1.8564211885579431 0
    endloop
  endfacet
  facet normal -0.9978589232386027 0.06540312923015622 8.650162537909365e-20
    outer loop
      vertex 17.09058934751119 1.8564211885579431 6.99
      vertex 17.1 2 6.99
      vertex 17.1 2 0
    endloop
  endfacet
  facet normal 0 0 -1
    outer loop
      vertex 15.45 1.0473720558371173 6.99
      vertex 15.330362428090407 1.1273113256796412 6.99
      vertex 15.330362428090407 2.872688674320359 6.99
    endloop
  endfacet
  facet normal 0 0 -1
    outer loop
      vertex 15.715299050387227 0.9374815910820247 6.99
      vertex 15.5790482243984 0.9837325142375846 6.99
      vertex 15.5790482243984 3.016267485762415 6.99
    endloop
  endfacet
  facet normal 0 0 -1
    outer loop
      vertex 15.856421188557944 0.9094106524888086 6.99
      vertex 15.715299050387227 0.9374815910820247 6.99
      vertex 15.715299050387227 3.0625184089179753 6.99
    endloop
  endfacet
  facet normal 0 0 -1
    outer loop
      vertex 15.5790482243984 0.9837325142375846 6.99
      vertex 15.45 1.0473720558371173 6.99
      vertex 15.45 2.9526279441628827 6.99
    endloop
  endfacet
  facet normal 0 0 -1
    outer loop
      vertex 15.330362428090407 1.1273113256796412 6.99
      vertex 15.222182540694797 1.2221825406947975 6.99
      vertex 15.222182540694797 2.7778174593052025 6.99
    endloop
  endfacet
  facet normal 0 0 -1
    outer loop
      vertex 15.222182540694797 1.2221825406947975 6.99
      vertex 15.127311325679642 1.3303624280904072 6.99
      vertex 15.127311325679642 2.669637571909593 6.99
    endloop
  endfacet
  facet normal 0 0 -1
    outer loop
      vertex 15.856421188557944 0.9094106524888086 6.99
      vertex 15.856421188557944 3.0905893475111914 6.99
      vertex 16 0.8999999999999999 6.99
    endloop
  endfacet
  facet normal 0 0 -1
    outer loop
      vertex 16 0.8999999999999999 6.99
      vertex 16 3.1 6.99
      vertex 16.143578811442058 0.9094106524888086 6.99
    endloop
  endfacet
  facet normal 0 0 -1
    outer loop
      vertex 16.143578811442058 0.9094106524888086 6.99
      vertex 16.143578811442058 3.0905893475111914 6.99
      vertex 16.284700949612773 0.9374815910820247 6.99
    endloop
  endfacet
  facet normal 0 0 -1
    outer loop
      vertex 16.284700949612773 0.9374815910820247 6.99
      vertex 16.284700949612773 3.0625184089179753 6.99
      vertex 16.420951775601598 0.9837325142375846 6.99
    endloop
  endfacet
  facet normal 0 0 -1
    outer loop
      vertex 16.420951775601598 0.9837325142375846 6.99
      vertex 16.420951775601598 3.016267485762415 6.99
      vertex 16.55 1.0473720558371173 6.99
    endloop
  endfacet
  facet normal 0 0 -1
    outer loop
      vertex 16.55 1.0473720558371173 6.99
      vertex 16.55 2.9526279441628827 6.99
      vertex 16.669637571909593 1.1273113256796412 6.99
    endloop
  endfacet
  facet normal 0 0 -1
    outer loop
      vertex 16.669637571909593 1.1273113256796412 6.99
      vertex 16.669637571909593 2.872688674320359 6.99
      vertex 16.7778174593052 1.2221825406947975 6.99
    endloop
  endfacet
  facet normal 0 0 -1
    outer loop
      vertex 15.127311325679642 1.3303624280904072 6.99
      vertex 15.047372055837117 1.45 6.99
      vertex 15.047372055837117 2.55 6.99
    endloop
  endfacet
  facet normal 0 0 -1
    outer loop
      vertex 15.047372055837117 1.45 6.99
      vertex 14.983732514237584 1.5790482243984012 6.99
      vertex 14.983732514237584 2.4209517756015986 6.99
    endloop
  endfacet
  facet normal 0 0 -1
    outer loop
      vertex 14.937481591082024 1.7152990503872272 6.99
      vertex 14.937481591082024 2.284700949612773 6.99
      vertex 14.983732514237584 1.5790482243984012 6.99
    endloop
  endfacet
  facet normal 0 0 -1
    outer loop
      vertex 14.937481591082024 1.7152990503872272 6.99
      vertex 14.909410652488809 1.8564211885579431 6.99
      vertex 14.909410652488809 2.143578811442057 6.99
    endloop
  endfacet
  facet normal 0 0 -1
    outer loop
      vertex 16.7778174593052 1.2221825406947975 6.99
      vertex 16.7778174593052 2.7778174593052025 6.99
      vertex 16.872688674320358 1.3303624280904072 6.99
    endloop
  endfacet
  facet normal 0 0 -1
    outer loop
      vertex 16.872688674320358 1.3303624280904072 6.99
      vertex 16.872688674320358 2.669637571909593 6.99
      vertex 16.95262794416288 1.45 6.99
    endloop
  endfacet
  facet normal 0 0 -1
    outer loop
      vertex 16.95262794416288 1.45 6.99
      vertex 16.95262794416288 2.55 6.99
      vertex 17.016267485762416 1.5790482243984012 6.99
    endloop
  endfacet
  facet normal 0 0 -1
    outer loop
      vertex 17.016267485762416 1.5790482243984012 6.99
      vertex 17.016267485762416 2.4209517756015986 6.99
      vertex 17.062518408917974 1.7152990503872272 6.99
    endloop
  endfacet
  facet normal 0 0 -1
    outer loop
      vertex 17.062518408917974 1.7152990503872272 6.99
      vertex 17.062518408917974 2.284700949612773 6.99
      vertex 17.09058934751119 1.8564211885579431 6.99
    endloop
  endfacet
  facet normal 0.9978589232386034 -0.06540312923014391 0
    outer loop
      vertex 14.909410652488809 2.143578811442057 6.99
      vertex 14.9 2 0
      vertex 14.909410652488809 2.143578811442057 0
    endloop
  endfacet
  facet normal 0.9807852804032319 -0.19509032201612078 0
    outer loop
      vertex 14.937481591082024 2.284700949612773 6.99
      vertex 14.909410652488809 2.143578811442057 0
      vertex 14.937481591082024 2.284700949612773 0
    endloop
  endfacet
  facet normal -0.9978589232386027 -0.06540312923015622 0
    outer loop
      vertex 17.1 2 6.99
      vertex 17.09058934751119 2.143578811442057 0
      vertex 17.1 2 0
    endloop
  endfacet
  facet normal -0.9807852804032295 -0.19509032201613263 0
    outer loop
      vertex 17.09058934751119 2.143578811442057 6.99
      vertex 17.062518408917974 2.284700949612773 0
      vertex 17.09058934751119 2.143578811442057 0
    endloop
  endfacet
  facet normal 0.9469301294951055 -0.3214394653031618 0
    outer loop
      vertex 14.983732514237584 2.4209517756015986 6.99
      vertex 14.937481591082024 2.284700949612773 0
      vertex 14.983732514237584 2.4209517756015986 0
    endloop
  endfacet
  facet normal -0.9469301294951092 -0.32143946530315076 0
    outer loop
      vertex 17.062518408917974 2.284700949612773 6.99
      vertex 17.016267485762416 2.4209517756015986 0
      vertex 17.062518408917974 2.284700949612773 0
    endloop
  endfacet
  facet normal -0.896872741532682 -0.4422886902190141 0
    outer loop
      vertex 17.016267485762416 2.4209517756015986 6.99
      vertex 16.95262794416288 2.55 0
      vertex 17.016267485762416 2.4209517756015986 0
    endloop
  endfacet
  facet normal 0.8968727415326867 -0.4422886902190042 0
    outer loop
      vertex 15.047372055837117 2.55 6.99
      vertex 14.983732514237584 2.4209517756015986 0
      vertex 15.047372055837117 2.55 0
    endloop
  endfacet
  facet normal 0.831469612302543 -0.5555702330196057 0
    outer loop
      vertex 15.127311325679642 2.669637571909593 6.99
      vertex 15.047372055837117 2.55 0
      vertex 15.127311325679642 2.669637571909593 0
    endloop
  endfacet
  facet normal 0.7518398074789812 -0.6593458151000644 0
    outer loop
      vertex 15.222182540694797 2.7778174593052025 6.99
      vertex 15.127311325679642 2.669637571909593 0
      vertex 15.222182540694797 2.7778174593052025 0
    endloop
  endfacet
  facet normal -0.8314696123025487 -0.5555702330195972 0
    outer loop
      vertex 16.95262794416288 2.55 6.99
      vertex 16.872688674320358 2.669637571909593 0
      vertex 16.95262794416288 2.55 0
    endloop
  endfacet
  facet normal -0.7518398074789752 -0.6593458151000715 0
    outer loop
      vertex 16.872688674320358 2.669637571909593 6.99
      vertex 16.7778174593052 2.7778174593052025 0
      vertex 16.872688674320358 2.669637571909593 0
    endloop
  endfacet
  facet normal 0.6593458151000694 -0.7518398074789767 0
    outer loop
      vertex 15.330362428090407 2.872688674320359 6.99
      vertex 15.222182540694797 2.7778174593052025 0
      vertex 15.330362428090407 2.872688674320359 0
    endloop
  endfacet
  facet normal 0.5555702330196028 -0.8314696123025449 0
    outer loop
      vertex 15.45 2.9526279441628827 6.99
      vertex 15.330362428090407 2.872688674320359 0
      vertex 15.45 2.9526279441628827 0
    endloop
  endfacet
  facet normal 0.44228869021899925 -0.8968727415326894 0
    outer loop
      vertex 15.5790482243984 3.016267485762415 6.99
      vertex 15.45 2.9526279441628827 0
      vertex 15.5790482243984 3.016267485762415 0
    endloop
  endfacet
  facet normal -0.6593458151000757 -0.7518398074789715 0
    outer loop
      vertex 16.7778174593052 2.7778174593052025 6.99
      vertex 16.669637571909593 2.872688674320359 0
      vertex 16.7778174593052 2.7778174593052025 0
    endloop
  endfacet
  facet normal -0.4422886902189944 -0.8968727415326918 0
    outer loop
      vertex 16.55 2.9526279441628827 6.99
      vertex 16.420951775601598 3.016267485762415 0
      vertex 16.55 2.9526279441628827 0
    endloop
  endfacet
  facet normal -0.5555702330196028 -0.8314696123025449 0
    outer loop
      vertex 16.669637571909593 2.872688674320359 6.99
      vertex 16.55 2.9526279441628827 0
      vertex 16.669637571909593 2.872688674320359 0
    endloop
  endfacet
  facet normal 0.9978589232386034 -0.06540312923014391 0
    outer loop
      vertex 14.9 2 6.99
      vertex 14.9 2 0
      vertex 14.909410652488809 2.143578811442057 6.99
    endloop
  endfacet
  facet normal 0.9807852804032319 -0.19509032201612078 0
    outer loop
      vertex 14.909410652488809 2.143578811442057 6.99
      vertex 14.909410652488809 2.143578811442057 0
      vertex 14.937481591082024 2.284700949612773 6.99
    endloop
  endfacet
  facet normal -0.9978589232386027 -0.06540312923015622 -8.650162537909365e-20
    outer loop
      vertex 17.1 2 6.99
      vertex 17.09058934751119 2.143578811442057 6.99
      vertex 17.09058934751119 2.143578811442057 0
    endloop
  endfacet
  facet normal -0.9807852804032295 -0.19509032201613263 2.8138091896040802e-19
    outer loop
      vertex 17.09058934751119 2.143578811442057 6.99
      vertex 17.062518408917974 2.284700949612773 6.99
      vertex 17.062518408917974 2.284700949612773 0
    endloop
  endfacet
  facet normal 0.9469301294951055 -0.3214394653031618 0
    outer loop
      vertex 14.937481591082024 2.284700949612773 6.99
      vertex 14.937481591082024 2.284700949612773 0
      vertex 14.983732514237584 2.4209517756015986 6.99
    endloop
  endfacet
  facet normal 0.8968727415326867 -0.4422886902190042 0
    outer loop
      vertex 14.983732514237584 2.4209517756015986 6.99
      vertex 14.983732514237584 2.4209517756015986 0
      vertex 15.047372055837117 2.55 6.99
    endloop
  endfacet
  facet normal -0.9469301294951092 -0.32143946530315076 -2.4901273358552888e-20
    outer loop
      vertex 17.062518408917974 2.284700949612773 6.99
      vertex 17.016267485762416 2.4209517756015986 6.99
      vertex 17.016267485762416 2.4209517756015986 0
    endloop
  endfacet
  facet normal 0.831469612302543 -0.5555702330196057 0
    outer loop
      vertex 15.047372055837117 2.55 6.99
      vertex 15.047372055837117 2.55 0
      vertex 15.127311325679642 2.669637571909593 6.99
    endloop
  endfacet
  facet normal 0.7518398074789812 -0.6593458151000644 0
    outer loop
      vertex 15.127311325679642 2.669637571909593 6.99
      vertex 15.127311325679642 2.669637571909593 0
      vertex 15.222182540694797 2.7778174593052025 6.99
    endloop
  endfacet
  facet normal -0.896872741532682 -0.4422886902190141 -6.093312491855133e-19
    outer loop
      vertex 17.016267485762416 2.4209517756015986 6.99
      vertex 16.95262794416288 2.55 6.99
      vertex 16.95262794416288 2.55 0
    endloop
  endfacet
  facet normal -0.8314696123025487 -0.5555702330195972 7.372043649764792e-19
    outer loop
      vertex 16.95262794416288 2.55 6.99
      vertex 16.872688674320358 2.669637571909593 6.99
      vertex 16.872688674320358 2.669637571909593 0
    endloop
  endfacet
  facet normal -0.7518398074789752 -0.6593458151000715 5.285109004100671e-20
    outer loop
      vertex 16.872688674320358 2.669637571909593 6.99
      vertex 16.7778174593052 2.7778174593052025 6.99
      vertex 16.7778174593052 2.7778174593052025 0
    endloop
  endfacet
  facet normal 0.6593458151000694 -0.7518398074789767 0
    outer loop
      vertex 15.222182540694797 2.7778174593052025 6.99
      vertex 15.222182540694797 2.7778174593052025 0
      vertex 15.330362428090407 2.872688674320359 6.99
    endloop
  endfacet
  facet normal 0.5555702330196028 -0.8314696123025449 0
    outer loop
      vertex 15.330362428090407 2.872688674320359 6.99
      vertex 15.330362428090407 2.872688674320359 0
      vertex 15.45 2.9526279441628827 6.99
    endloop
  endfacet
  facet normal 0.44228869021899925 -0.8968727415326894 0
    outer loop
      vertex 15.45 2.9526279441628827 6.99
      vertex 15.45 2.9526279441628827 0
      vertex 15.5790482243984 3.016267485762415 6.99
    endloop
  endfacet
  facet normal -0.6593458151000757 -0.7518398074789715 -2.51989436559448e-19
    outer loop
      vertex 16.7778174593052 2.7778174593052025 6.99
      vertex 16.669637571909593 2.872688674320359 6.99
      vertex 16.669637571909593 2.872688674320359 0
    endloop
  endfacet
  facet normal -0.4422886902189944 -0.8968727415326918 -5.210537978700649e-19
    outer loop
      vertex 16.55 2.9526279441628827 6.99
      vertex 16.420951775601598 3.016267485762415 6.99
      vertex 16.420951775601598 3.016267485762415 0
    endloop
  endfacet
  facet normal -0.5555702330196028 -0.8314696123025449 -6.253380261753117e-19
    outer loop
      vertex 16.669637571909593 2.872688674320359 6.99
      vertex 16.55 2.9526279441628827 6.99
      vertex 16.55 2.9526279441628827 0
    endloop
  endfacet
  facet normal 0.32143946530316364 -0.9469301294951048 0
    outer loop
      vertex 15.715299050387227 3.0625184089179753 6.99
      vertex 15.5790482243984 3.016267485762415 0
      vertex 15.715299050387227 3.0625184089179753 0
    endloop
  endfacet
  facet normal 0.19509032201612553 -0.980785280403231 0
    outer loop
      vertex 15.856421188557944 3.0905893475111914 6.99
      vertex 15.715299050387227 3.0625184089179753 0
      vertex 15.856421188557944 3.0905893475111914 0
    endloop
  endfacet
  facet normal -0.32143946530316747 -0.9469301294951038 0
    outer loop
      vertex 16.420951775601598 3.016267485762415 6.99
      vertex 16.284700949612773 3.0625184089179753 0
      vertex 16.420951775601598 3.016267485762415 0
    endloop
  endfacet
  facet normal -0.06540312923014331 -0.9978589232386034 0
    outer loop
      vertex 16.143578811442058 3.0905893475111914 6.99
      vertex 16 3.1 0
      vertex 16.143578811442058 3.0905893475111914 0
    endloop
  endfacet
  facet normal 0.06540312923014412 -0.9978589232386034 0
    outer loop
      vertex 16 3.1 6.99
      vertex 15.856421188557944 3.0905893475111914 0
      vertex 16 3.1 0
    endloop
  endfacet
  facet normal -0.1950903220161279 -0.9807852804032305 0
    outer loop
      vertex 16.284700949612773 3.0625184089179753 6.99
      vertex 16.143578811442058 3.0905893475111914 0
      vertex 16.284700949612773 3.0625184089179753 0
    endloop
  endfacet
  facet normal 0.32143946530316364 -0.9469301294951048 0
    outer loop
      vertex 15.5790482243984 3.016267485762415 6.99
      vertex 15.5790482243984 3.016267485762415 0
      vertex 15.715299050387227 3.0625184089179753 6.99
    endloop
  endfacet
  facet normal 0.19509032201612553 -0.980785280403231 0
    outer loop
      vertex 15.715299050387227 3.0625184089179753 6.99
      vertex 15.715299050387227 3.0625184089179753 0
      vertex 15.856421188557944 3.0905893475111914 6.99
    endloop
  endfacet
  facet normal -0.32143946530316747 -0.9469301294951038 1.814707439282692e-19
    outer loop
      vertex 16.420951775601598 3.016267485762415 6.99
      vertex 16.284700949612773 3.0625184089179753 6.99
      vertex 16.284700949612773 3.0625184089179753 0
    endloop
  endfacet
  facet normal 0.06540312923014412 -0.9978589232386034 0
    outer loop
      vertex 15.856421188557944 3.0905893475111914 6.99
      vertex 15.856421188557944 3.0905893475111914 0
      vertex 16 3.1 6.99
    endloop
  endfacet
  facet normal -0.06540312923014331 -0.9978589232386034 0
    outer loop
      vertex 16 3.1 6.99
      vertex 16 3.1 0
      vertex 16.143578811442058 3.0905893475111914 6.99
    endloop
  endfacet
  facet normal -0.1950903220161279 -0.9807852804032305 -3.622088703500212e-19
    outer loop
      vertex 16.284700949612773 3.0625184089179753 6.99
      vertex 16.143578811442058 3.0905893475111914 6.99
      vertex 16.143578811442058 3.0905893475111914 0
    endloop
  endfacet
  facet normal 0 0 -1
    outer loop
      vertex 14.909410652488809 1.8564211885579431 6.99
      vertex 14.9 2 6.99
      vertex 14.909410652488809 2.143578811442057 6.99
    endloop
  endfacet
  facet normal 0 0 -1
    outer loop
      vertex 14.937481591082024 1.7152990503872272 6.99
      vertex 14.909410652488809 2.143578811442057 6.99
      vertex 14.937481591082024 2.284700949612773 6.99
    endloop
  endfacet
  facet normal 0 0 -1
    outer loop
      vertex 14.983732514237584 1.5790482243984012 6.99
      vertex 14.937481591082024 2.284700949612773 6.99
      vertex 14.983732514237584 2.4209517756015986 6.99
    endloop
  endfacet
  facet normal 0 0 -1
    outer loop
      vertex 15.047372055837117 1.45 6.99
      vertex 14.983732514237584 2.4209517756015986 6.99
      vertex 15.047372055837117 2.55 6.99
    endloop
  endfacet
  facet normal 0 0 -1
    outer loop
      vertex 15.127311325679642 1.3303624280904072 6.99
      vertex 15.047372055837117 2.55 6.99
      vertex 15.127311325679642 2.669637571909593 6.99
    endloop
  endfacet
  facet normal 0 0 -1
    outer loop
      vertex 15.222182540694797 1.2221825406947975 6.99
      vertex 15.127311325679642 2.669637571909593 6.99
      vertex 15.222182540694797 2.7778174593052025 6.99
    endloop
  endfacet
  facet normal 0 0 -1
    outer loop
      vertex 17.09058934751119 1.8564211885579431 6.99
      vertex 17.09058934751119 2.143578811442057 6.99
      vertex 17.1 2 6.99
    endloop
  endfacet
  facet normal 0 0 -1
    outer loop
      vertex 17.09058934751119 1.8564211885579431 6.99
      vertex 17.062518408917974 2.284700949612773 6.99
      vertex 17.09058934751119 2.143578811442057 6.99
    endloop
  endfacet
  facet normal 0 0 -1
    outer loop
      vertex 17.062518408917974 1.7152990503872272 6.99
      vertex 17.016267485762416 2.4209517756015986 6.99
      vertex 17.062518408917974 2.284700949612773 6.99
    endloop
  endfacet
  facet normal 0 0 -1
    outer loop
      vertex 17.016267485762416 1.5790482243984012 6.99
      vertex 16.95262794416288 2.55 6.99
      vertex 17.016267485762416 2.4209517756015986 6.99
    endloop
  endfacet
  facet normal 0 0 -1
    outer loop
      vertex 16.95262794416288 1.45 6.99
      vertex 16.872688674320358 2.669637571909593 6.99
      vertex 16.95262794416288 2.55 6.99
    endloop
  endfacet
  facet normal 0 0 -1
    outer loop
      vertex 15.330362428090407 1.1273113256796412 6.99
      vertex 15.222182540694797 2.7778174593052025 6.99
      vertex 15.330362428090407 2.872688674320359 6.99
    endloop
  endfacet
  facet normal 0 0 -1
    outer loop
      vertex 15.45 1.0473720558371173 6.99
      vertex 15.330362428090407 2.872688674320359 6.99
      vertex 15.45 2.9526279441628827 6.99
    endloop
  endfacet
  facet normal 0 0 -1
    outer loop
      vertex 15.5790482243984 0.9837325142375846 6.99
      vertex 15.45 2.9526279441628827 6.99
      vertex 15.5790482243984 3.016267485762415 6.99
    endloop
  endfacet
  facet normal 0 0 -1
    outer loop
      vertex 15.715299050387227 0.9374815910820247 6.99
      vertex 15.5790482243984 3.016267485762415 6.99
      vertex 15.715299050387227 3.0625184089179753 6.99
    endloop
  endfacet
  facet normal 0 0 -1
    outer loop
      vertex 15.856421188557944 0.9094106524888086 6.99
      vertex 15.715299050387227 3.0625184089179753 6.99
      vertex 15.856421188557944 3.0905893475111914 6.99
    endloop
  endfacet
  facet normal 0 0 -1
    outer loop
      vertex 16 0.8999999999999999 6.99
      vertex 15.856421188557944 3.0905893475111914 6.99
      vertex 16 3.1 6.99
    endloop
  endfacet
  facet normal 0 0 -1
    outer loop
      vertex 16.143578811442058 0.9094106524888086 6.99
      vertex 16 3.1 6.99
      vertex 16.143578811442058 3.0905893475111914 6.99
    endloop
  endfacet
  facet normal 0 0 -1
    outer loop
      vertex 16.55 1.0473720558371173 6.99
      vertex 16.420951775601598 3.016267485762415 6.99
      vertex 16.55 2.9526279441628827 6.99
    endloop
  endfacet
  facet normal 0 0 -1
    outer loop
      vertex 16.284700949612773 0.9374815910820247 6.99
      vertex 16.143578811442058 3.0905893475111914 6.99
      vertex 16.284700949612773 3.0625184089179753 6.99
    endloop
  endfacet
  facet normal 0 0 -1
    outer loop
      vertex 16.420951775601598 0.9837325142375846 6.99
      vertex 16.284700949612773 3.0625184089179753 6.99
      vertex 16.420951775601598 3.016267485762415 6.99
    endloop
  endfacet
  facet normal 0 0 -1
    outer loop
      vertex 16.872688674320358 1.3303624280904072 6.99
      vertex 16.7778174593052 2.7778174593052025 6.99
      vertex 16.872688674320358 2.669637571909593 6.99
    endloop
  endfacet
  facet normal 0 0 -1
    outer loop
      vertex 16.7778174593052 1.2221825406947975 6.99
      vertex 16.669637571909593 2.872688674320359 6.99
      vertex 16.7778174593052 2.7778174593052025 6.99
    endloop
  endfacet
  facet normal 0 0 -1
    outer loop
      vertex 16.669637571909593 1.1273113256796412 6.99
      vertex 16.55 2.9526279441628827 6.99
      vertex 16.669637571909593 2.872688674320359 6.99
    endloop
  endfacet
  facet normal 0 0 -1
    outer loop
      vertex -23 0 0
      vertex -16.669637571909593 1.1273113256796412 0
      vertex -16.55 1.0473720558371173 0
    endloop
  endfacet
  facet normal 0 0 -1
    outer loop
      vertex -23 0 0
      vertex -16.143578811442058 0.9094106524888086 0
      vertex -16 0.8999999999999999 0
    endloop
  endfacet
  facet normal 0 0 -1
    outer loop
      vertex -23 0 0
      vertex -16.284700949612773 0.9374815910820247 0
      vertex -16.143578811442058 0.9094106524888086 0
    endloop
  endfacet
  facet normal 0 0 -1
    outer loop
      vertex -23 0 0
      vertex -16 0.8999999999999999 0
      vertex -15.856421188557944 0.9094106524888086 0
    endloop
  endfacet
  facet normal 0 0 -1
    outer loop
      vertex -23 0 0
      vertex -16.420951775601598 0.9837325142375846 0
      vertex -16.284700949612773 0.9374815910820247 0
    endloop
  endfacet
  facet normal 0 0 -1
    outer loop
      vertex -23 0 0
      vertex -16.55 1.0473720558371173 0
      vertex -16.420951775601598 0.9837325142375846 0
    endloop
  endfacet
  facet normal 0 0 -1
    outer loop
      vertex -23 0 0
      vertex -16.7778174593052 1.2221825406947975 0
      vertex -16.669637571909593 1.1273113256796412 0
    endloop
  endfacet
  facet normal 0 0 -1
    outer loop
      vertex -23 0 0
      vertex -16.872688674320358 1.3303624280904072 0
      vertex -16.7778174593052 1.2221825406947975 0
    endloop
  endfacet
  facet normal 0 0 -1
    outer loop
      vertex -23 0 0
      vertex -16.95262794416288 1.45 0
      vertex -16.872688674320358 1.3303624280904072 0
    endloop
  endfacet
  facet normal 0 0 -1
    outer loop
      vertex -23 0 0
      vertex -17.016267485762416 1.5790482243984012 0
      vertex -16.95262794416288 1.45 0
    endloop
  endfacet
  facet normal 0 0 -1
    outer loop
      vertex -23 0 0
      vertex -17.062518408917974 1.7152990503872272 0
      vertex -17.016267485762416 1.5790482243984012 0
    endloop
  endfacet
  facet normal 0 0 -1
    outer loop
      vertex -23 0 0
      vertex -17.09058934751119 1.8564211885579431 0
      vertex -17.062518408917974 1.7152990503872272 0
    endloop
  endfacet
  facet normal 0 0 -1
    outer loop
      vertex -23 0 0
      vertex -17.1 2 0
      vertex -17.09058934751119 1.8564211885579431 0
    endloop
  endfacet
  facet normal 0 0 -1
    outer loop
      vertex -23 0 0
      vertex -15.856421188557944 0.9094106524888086 0
      vertex 23 4 0
    endloop
  endfacet
  facet normal 0 0 -1
    outer loop
      vertex 23 4 0
      vertex -15.856421188557944 0.9094106524888086 0
      vertex -15.715299050387227 0.9374815910820247 0
    endloop
  endfacet
  facet normal 0 0 -1
    outer loop
      vertex 23 4 0
      vertex -15.715299050387227 0.9374815910820247 0
      vertex -15.5790482243984 0.9837325142375846 0
    endloop
  endfacet
  facet normal -1 0 0
    outer loop
      vertex -23 0 0
      vertex -23 0 10
      vertex -23 4 10
    endloop
  endfacet
  facet normal 0 -1 0
    outer loop
      vertex -23 0 0
      vertex 23 0 10
      vertex -23 0 10
    endloop
  endfacet
  facet normal 0 0 1
    outer loop
      vertex -23 0 10
      vertex 23 0 10
      vertex -23 4 10
    endloop
  endfacet
  facet normal 0 0 -1
    outer loop
      vertex -23 0 0
      vertex -23 4 0
      vertex -17.1 2 0
    endloop
  endfacet
  facet normal 0 0 -1
    outer loop
      vertex -23 4 0
      vertex -17.09058934751119 2.143578811442057 0
      vertex -17.1 2 0
    endloop
  endfacet
  facet normal 0 0 -1
    outer loop
      vertex -23 4 0
      vertex -17.062518408917974 2.284700949612773 0
      vertex -17.09058934751119 2.143578811442057 0
    endloop
  endfacet
  facet normal 0 0 -1
    outer loop
      vertex -23 4 0
      vertex -17.016267485762416 2.4209517756015986 0
      vertex -17.062518408917974 2.284700949612773 0
    endloop
  endfacet
  facet normal 0 0 -1
    outer loop
      vertex -23 4 0
      vertex -16.95262794416288 2.55 0
      vertex -17.016267485762416 2.4209517756015986 0
    endloop
  endfacet
  facet normal -1 0 0
    outer loop
      vertex -23 0 0
      vertex -23 4 10
      vertex -23 4 0
    endloop
  endfacet
  facet normal 0 0 -1
    outer loop
      vertex -23 4 0
      vertex -16.872688674320358 2.669637571909593 0
      vertex -16.95262794416288 2.55 0
    endloop
  endfacet
  facet normal 0 0 -1
    outer loop
      vertex -23 4 0
      vertex -16.7778174593052 2.7778174593052025 0
      vertex -16.872688674320358 2.669637571909593 0
    endloop
  endfacet
  facet normal 0 0 -1
    outer loop
      vertex -23 4 0
      vertex -16.669637571909593 2.872688674320359 0
      vertex -16.7778174593052 2.7778174593052025 0
    endloop
  endfacet
  facet normal 0 0 -1
    outer loop
      vertex -23 4 0
      vertex -16.55 2.9526279441628827 0
      vertex -16.669637571909593 2.872688674320359 0
    endloop
  endfacet
  facet normal 0 0 -1
    outer loop
      vertex -23 4 0
      vertex -16.420951775601598 3.016267485762415 0
      vertex -16.55 2.9526279441628827 0
    endloop
  endfacet
  facet normal 0 0 -1
    outer loop
      vertex -23 4 0
      vertex -16.284700949612773 3.0625184089179753 0
      vertex -16.420951775601598 3.016267485762415 0
    endloop
  endfacet
  facet normal 0 0 -1
    outer loop
      vertex -23 4 0
      vertex -16.143578811442058 3.0905893475111914 0
      vertex -16.284700949612773 3.0625184089179753 0
    endloop
  endfacet
  facet normal 0 0 -1
    outer loop
      vertex -23 4 0
      vertex -16 3.1 0
      vertex -16.143578811442058 3.0905893475111914 0
    endloop
  endfacet
  facet normal 0 0 -1
    outer loop
      vertex 23 4 0
      vertex -15.5790482243984 0.9837325142375846 0
      vertex -15.45 1.0473720558371173 0
    endloop
  endfacet
  facet normal 0 0 -1
    outer loop
      vertex 23 4 0
      vertex -15.45 1.0473720558371173 0
      vertex -15.330362428090407 1.1273113256796412 0
    endloop
  endfacet
  facet normal 0 0 -1
    outer loop
      vertex 23 4 0
      vertex -15.330362428090407 1.1273113256796412 0
      vertex -15.222182540694797 1.2221825406947975 0
    endloop
  endfacet
  facet normal 0 0 -1
    outer loop
      vertex 23 4 0
      vertex -15.222182540694797 1.2221825406947975 0
      vertex -15.127311325679642 1.3303624280904072 0
    endloop
  endfacet
  facet normal 0 0 -1
    outer loop
      vertex 23 4 0
      vertex -15.127311325679642 1.3303624280904072 0
      vertex -15.047372055837117 1.45 0
    endloop
  endfacet
  facet normal 0 0 -1
    outer loop
      vertex 23 4 0
      vertex -15.047372055837117 1.45 0
      vertex -14.983732514237584 1.5790482243984012 0
    endloop
  endfacet
  facet normal 0 0 -1
    outer loop
      vertex 23 4 0
      vertex -14.983732514237584 1.5790482243984012 0
      vertex -14.937481591082024 1.7152990503872272 0
    endloop
  endfacet
  facet normal 0 0 -1
    outer loop
      vertex 23 4 0
      vertex -14.937481591082024 1.7152990503872272 0
      vertex -14.909410652488809 1.8564211885579431 0
    endloop
  endfacet
  facet normal 0 0 -1
    outer loop
      vertex 23 4 0
      vertex -14.909410652488809 1.8564211885579431 0
      vertex -14.9 2 0
    endloop
  endfacet
  facet normal 0 0 -1
    outer loop
      vertex 23 4 0
      vertex -14.9 2 0
      vertex -14.909410652488809 2.143578811442057 0
    endloop
  endfacet
  facet normal 0 0 -1
    outer loop
      vertex 23 4 0
      vertex -14.909410652488809 2.143578811442057 0
      vertex -14.937481591082024 2.284700949612773 0
    endloop
  endfacet
  facet normal 0 0 -1
    outer loop
      vertex 23 4 0
      vertex -14.937481591082024 2.284700949612773 0
      vertex -14.983732514237584 2.4209517756015986 0
    endloop
  endfacet
  facet normal 0 0 -1
    outer loop
      vertex 23 4 0
      vertex -14.983732514237584 2.4209517756015986 0
      vertex -15.047372055837117 2.55 0
    endloop
  endfacet
  facet normal 0 0 -1
    outer loop
      vertex 23 4 0
      vertex -15.856421188557944 3.0905893475111914 0
      vertex -16 3.1 0
    endloop
  endfacet
  facet normal 0 0 -1
    outer loop
      vertex 23 4 0
      vertex -15.047372055837117 2.55 0
      vertex -15.127311325679642 2.669637571909593 0
    endloop
  endfacet
  facet normal 0 0 -1
    outer loop
      vertex 23 4 0
      vertex -15.127311325679642 2.669637571909593 0
      vertex -15.222182540694797 2.7778174593052025 0
    endloop
  endfacet
  facet normal 0 0 -1
    outer loop
      vertex 23 4 0
      vertex -15.222182540694797 2.7778174593052025 0
      vertex -15.330362428090407 2.872688674320359 0
    endloop
  endfacet
  facet normal 0 0 -1
    outer loop
      vertex 23 4 0
      vertex -15.330362428090407 2.872688674320359 0
      vertex -15.45 2.9526279441628827 0
    endloop
  endfacet
  facet normal 0 0 -1
    outer loop
      vertex 23 4 0
      vertex -15.45 2.9526279441628827 0
      vertex -15.5790482243984 3.016267485762415 0
    endloop
  endfacet
  facet normal 0 0 -1
    outer loop
      vertex 23 4 0
      vertex -15.5790482243984 3.016267485762415 0
      vertex -15.715299050387227 3.0625184089179753 0
    endloop
  endfacet
  facet normal 0 0 -1
    outer loop
      vertex 23 4 0
      vertex -15.715299050387227 3.0625184089179753 0
      vertex -15.856421188557944 3.0905893475111914 0
    endloop
  endfacet
  facet normal 0 0 -1
    outer loop
      vertex -23 4 0
      vertex 23 4 0
      vertex -16 3.1 0
    endloop
  endfacet
  facet normal 0 1 0
    outer loop
      vertex -23 4 0
      vertex -23 4 10
      vertex 23 4 0
    endloop
  endfacet
  facet normal 0 0 -1
    outer loop
      vertex -23 0 0
      vertex 15.856421188557944 0.9094106524888086 0
      vertex 23 0 0
    endloop
  endfacet
  facet normal 0 0 -1
    outer loop
      vertex -23 0 0
      vertex 15.715299050387227 0.9374815910820247 0
      vertex 15.856421188557944 0.9094106524888086 0
    endloop
  endfacet
  facet normal 0 0 -1
    outer loop
      vertex -23 0 0
      vertex 15.5790482243984 0.9837325142375846 0
      vertex 15.715299050387227 0.9374815910820247 0
    endloop
  endfacet
  facet normal 0 0 -1
    outer loop
      vertex -23 0 0
      vertex 15.45 1.0473720558371173 0
      vertex 15.5790482243984 0.9837325142375846 0
    endloop
  endfacet
  facet normal 0 0 -1
    outer loop
      vertex -23 0 0
      vertex 15.330362428090407 1.1273113256796412 0
      vertex 15.45 1.0473720558371173 0
    endloop
  endfacet
  facet normal 0 0 -1
    outer loop
      vertex -23 0 0
      vertex 15.222182540694797 1.2221825406947975 0
      vertex 15.330362428090407 1.1273113256796412 0
    endloop
  endfacet
  facet normal 0 0 -1
    outer loop
      vertex -23 0 0
      vertex 15.127311325679642 1.3303624280904072 0
      vertex 15.222182540694797 1.2221825406947975 0
    endloop
  endfacet
  facet normal 0 0 -1
    outer loop
      vertex -23 0 0
      vertex 15.047372055837117 1.45 0
      vertex 15.127311325679642 1.3303624280904072 0
    endloop
  endfacet
  facet normal 0 -1 0
    outer loop
      vertex -23 0 0
      vertex 23 0 0
      vertex 23 0 10
    endloop
  endfacet
  facet normal 0 0 -1
    outer loop
      vertex -23 0 0
      vertex 14.983732514237584 1.5790482243984012 0
      vertex 15.047372055837117 1.45 0
    endloop
  endfacet
  facet normal 0 0 -1
    outer loop
      vertex -23 0 0
      vertex 14.937481591082024 1.7152990503872272 0
      vertex 14.983732514237584 1.5790482243984012 0
    endloop
  endfacet
  facet normal 0 0 -1
    outer loop
      vertex -23 0 0
      vertex 14.909410652488809 1.8564211885579431 0
      vertex 14.937481591082024 1.7152990503872272 0
    endloop
  endfacet
  facet normal 0 0 -1
    outer loop
      vertex -23 0 0
      vertex 14.9 2 0
      vertex 14.909410652488809 1.8564211885579431 0
    endloop
  endfacet
  facet normal 0 0 -1
    outer loop
      vertex -23 0 0
      vertex 14.909410652488809 2.143578811442057 0
      vertex 14.9 2 0
    endloop
  endfacet
  facet normal 0 0 -1
    outer loop
      vertex -23 0 0
      vertex 14.937481591082024 2.284700949612773 0
      vertex 14.909410652488809 2.143578811442057 0
    endloop
  endfacet
  facet normal 0 0 -1
    outer loop
      vertex -23 0 0
      vertex 14.983732514237584 2.4209517756015986 0
      vertex 14.937481591082024 2.284700949612773 0
    endloop
  endfacet
  facet normal 0 0 -1
    outer loop
      vertex -23 0 0
      vertex 15.047372055837117 2.55 0
      vertex 14.983732514237584 2.4209517756015986 0
    endloop
  endfacet
  facet normal 0 0 -1
    outer loop
      vertex -23 0 0
      vertex 15.127311325679642 2.669637571909593 0
      vertex 15.047372055837117 2.55 0
    endloop
  endfacet
  facet normal 0 0 -1
    outer loop
      vertex -23 0 0
      vertex 15.222182540694797 2.7778174593052025 0
      vertex 15.127311325679642 2.669637571909593 0
    endloop
  endfacet
  facet normal 0 0 -1
    outer loop
      vertex -23 0 0
      vertex 15.330362428090407 2.872688674320359 0
      vertex 15.222182540694797 2.7778174593052025 0
    endloop
  endfacet
  facet normal 0 0 -1
    outer loop
      vertex -23 0 0
      vertex 15.45 2.9526279441628827 0
      vertex 15.330362428090407 2.872688674320359 0
    endloop
  endfacet
  facet normal 0 0 -1
    outer loop
      vertex -23 0 0
      vertex 15.5790482243984 3.016267485762415 0
      vertex 15.45 2.9526279441628827 0
    endloop
  endfacet
  facet normal 0 0 -1
    outer loop
      vertex 23 0 0
      vertex 15.856421188557944 0.9094106524888086 0
      vertex 16 0.8999999999999999 0
    endloop
  endfacet
  facet normal 0 0 -1
    outer loop
      vertex 23 0 0
      vertex 16 0.8999999999999999 0
      vertex 16.143578811442058 0.9094106524888086 0
    endloop
  endfacet
  facet normal 0 0 -1
    outer loop
      vertex 23 0 0
      vertex 16.143578811442058 0.9094106524888086 0
      vertex 16.284700949612773 0.9374815910820247 0
    endloop
  endfacet
  facet normal 0 0 -1
    outer loop
      vertex 23 0 0
      vertex 16.284700949612773 0.9374815910820247 0
      vertex 16.420951775601598 0.9837325142375846 0
    endloop
  endfacet
  facet normal 0 0 -1
    outer loop
      vertex 23 0 0
      vertex 16.420951775601598 0.9837325142375846 0
      vertex 16.55 1.0473720558371173 0
    endloop
  endfacet
  facet normal 0 0 -1
    outer loop
      vertex 23 0 0
      vertex 16.55 1.0473720558371173 0
      vertex 16.669637571909593 1.1273113256796412 0
    endloop
  endfacet
  facet normal 0 0 -1
    outer loop
      vertex 23 0 0
      vertex 16.669637571909593 1.1273113256796412 0
      vertex 16.7778174593052 1.2221825406947975 0
    endloop
  endfacet
  facet normal 0 0 -1
    outer loop
      vertex 23 0 0
      vertex 16.7778174593052 1.2221825406947975 0
      vertex 16.872688674320358 1.3303624280904072 0
    endloop
  endfacet
  facet normal 0 0 -1
    outer loop
      vertex 23 0 0
      vertex 16.872688674320358 1.3303624280904072 0
      vertex 16.95262794416288 1.45 0
    endloop
  endfacet
  facet normal 0 0 -1
    outer loop
      vertex 23 0 0
      vertex 16.95262794416288 1.45 0
      vertex 17.016267485762416 1.5790482243984012 0
    endloop
  endfacet
  facet normal 0 0 -1
    outer loop
      vertex 23 0 0
      vertex 17.016267485762416 1.5790482243984012 0
      vertex 17.062518408917974 1.7152990503872272 0
    endloop
  endfacet
  facet normal 0 0 -1
    outer loop
      vertex 23 0 0
      vertex 17.062518408917974 1.7152990503872272 0
      vertex 17.09058934751119 1.8564211885579431 0
    endloop
  endfacet
  facet normal 0 0 -1
    outer loop
      vertex 23 0 0
      vertex 17.09058934751119 1.8564211885579431 0
      vertex 23 4 0
    endloop
  endfacet
  facet normal 1 0 0
    outer loop
      vertex 23 0 0
      vertex 23 4 0
      vertex 23 0 10
    endloop
  endfacet
  facet normal 0 0 -1
    outer loop
      vertex -23 0 0
      vertex 15.715299050387227 3.0625184089179753 0
      vertex 15.5790482243984 3.016267485762415 0
    endloop
  endfacet
  facet normal 0 0 -1
    outer loop
      vertex -23 0 0
      vertex 15.856421188557944 3.0905893475111914 0
      vertex 15.715299050387227 3.0625184089179753 0
    endloop
  endfacet
  facet normal 0 0 -1
    outer loop
      vertex -23 0 0
      vertex 23 4 0
      vertex 15.856421188557944 3.0905893475111914 0
    endloop
  endfacet
  facet normal 0 0 -1
    outer loop
      vertex 23 4 0
      vertex 17.09058934751119 1.8564211885579431 0
      vertex 17.1 2 0
    endloop
  endfacet
  facet normal 0 0 -1
    outer loop
      vertex 23 4 0
      vertex 17.1 2 0
      vertex 17.09058934751119 2.143578811442057 0
    endloop
  endfacet
  facet normal 0 0 -1
    outer loop
      vertex 23 4 0
      vertex 17.09058934751119 2.143578811442057 0
      vertex 17.062518408917974 2.284700949612773 0
    endloop
  endfacet
  facet normal 0 0 -1
    outer loop
      vertex 23 4 0
      vertex 17.062518408917974 2.284700949612773 0
      vertex 17.016267485762416 2.4209517756015986 0
    endloop
  endfacet
  facet normal 0 0 -1
    outer loop
      vertex 23 4 0
      vertex 17.016267485762416 2.4209517756015986 0
      vertex 16.95262794416288 2.55 0
    endloop
  endfacet
  facet normal 0 0 -1
    outer loop
      vertex 23 4 0
      vertex 16.95262794416288 2.55 0
      vertex 16.872688674320358 2.669637571909593 0
    endloop
  endfacet
  facet normal 0 0 -1
    outer loop
      vertex 23 4 0
      vertex 16.872688674320358 2.669637571909593 0
      vertex 16.7778174593052 2.7778174593052025 0
    endloop
  endfacet
  facet normal 0 0 -1
    outer loop
      vertex 23 4 0
      vertex 16.7778174593052 2.7778174593052025 0
      vertex 16.669637571909593 2.872688674320359 0
    endloop
  endfacet
  facet normal 0 0 -1
    outer loop
      vertex 23 4 0
      vertex 16.55 2.9526279441628827 0
      vertex 16.420951775601598 3.016267485762415 0
    endloop
  endfacet
  facet normal 0 0 -1
    outer loop
      vertex 23 4 0
      vertex 16.420951775601598 3.016267485762415 0
      vertex 16.284700949612773 3.0625184089179753 0
    endloop
  endfacet
  facet normal 0 0 -1
    outer loop
      vertex 23 4 0
      vertex 16 3.1 0
      vertex 15.856421188557944 3.0905893475111914 0
    endloop
  endfacet
  facet normal 0 0 -1
    outer loop
      vertex 23 4 0
      vertex 16.284700949612773 3.0625184089179753 0
      vertex 16.143578811442058 3.0905893475111914 0
    endloop
  endfacet
  facet normal 0 0 -1
    outer loop
      vertex 23 4 0
      vertex 16.143578811442058 3.0905893475111914 0
      vertex 16 3.1 0
    endloop
  endfacet
  facet normal 0 0 -1
    outer loop
      vertex 23 4 0
      vertex 16.669637571909593 2.872688674320359 0
      vertex 16.55 2.9526279441628827 0
    endloop
  endfacet
  facet normal 0 0 1
    outer loop
      vertex -23 4 10
      vertex 23 0 10
      vertex 23 4 10
    endloop
  endfacet
  facet normal 0 1 0
    outer loop
      vertex -23 4 10
      vertex 23 4 10
      vertex 23 4 0
    endloop
  endfacet
  facet normal 1 0 0
    outer loop
      vertex 23 0 10
      vertex 23 4 0
      vertex 23 4 10
    endloop
  endfacet
endsolid OpenSCAD_Model
